<?xml version="1.0" encoding="utf-8"?>
<!-- Generator: Adobe Illustrator 21.0.2, SVG Export Plug-In . SVG Version: 6.00 Build 0)  -->
<svg version="1.1" id="Layer_1" xmlns="http://www.w3.org/2000/svg" xmlns:xlink="http://www.w3.org/1999/xlink" x="0px" y="0px"
	 viewBox="0 0 500 166.5" style="enable-background:new 0 0 500 166.5;" xml:space="preserve">
<style type="text/css">
	.st0{fill:#828282;}
	.st1{fill:#00AA9F;}
</style>
<g>
	<path class="st0" d="M51.5,136.1c-3.1,0-5.5-1-7.2-2.9c-1.7-1.9-2.6-4.5-2.6-7.8V90.5h18.1V78.9H41.7V57.3H27.2v21.6h-8.7v11.6h8.7
		V125c0,7.2,2.2,13,6.5,17.3c4.3,4.3,9.6,6.4,15.8,6.4c6.2,0,11.8-2.3,16.9-6.8l-5.9-10.2C57.6,134.6,54.6,136.1,51.5,136.1z"/>
	<path class="st0" d="M111.4,82.3c-4.6,0-8.9,1.1-12.8,3.4c-4,2.3-6.9,5.4-8.9,9.5V57.6H75.9v91.1h13.8v-35.4
		c0-6.1,1.8-10.7,5.3-13.8c3.5-3.2,7.7-4.7,12.4-4.7c10,0,15,6,15,18.1v35.9h13.8v-40.1c0-8.5-2.3-15-6.8-19.5
		C124.7,84.5,118.8,82.3,111.4,82.3z"/>
	<rect x="145.6" y="83.2" class="st0" width="13.8" height="65.4"/>
	<path class="st0" d="M206.6,82.3c-4.5,0-8.7,1.1-12.6,3.4c-3.9,2.3-6.9,5.4-9.2,9.5V83.2H171v65.4h13.8v-35.4
		c0-6.1,1.8-10.7,5.3-13.8c3.5-3.2,7.7-4.7,12.4-4.7c10,0,15,6,15,18.1v35.9h13.8v-40.1c0-8.5-2.3-15-6.8-19.5
		C219.9,84.5,213.9,82.3,206.6,82.3z"/>
	<polygon class="st0" points="296.7,83.2 279,83.2 252.4,111 252.4,57.4 238.7,57.4 238.7,148.6 252.4,148.6 252.4,130.1 262.4,120 
		281.8,148.6 298.5,148.6 271.9,109.2 	"/>
	<path class="st0" d="M476.2,123.9c-1.2,0-2.5,1.1-2.9,3.7c-1.1,5.4-3.3,13.3-8.2,13.3c-3.2,0-3.2-4.5-3.2-5.7v-25.4
		c0-5.7-2-12.4-10.2-12.4c-6,0-10.4,5.3-13.8,12.2V104c0-2.9-2.6-5.4-6.6-5.4c-1.7,0-3.2,0.9-3.2,2.1c0,0.9,0.5,1.6,0.5,3.9v21.3
		c-0.2,0.5-0.4,1-0.5,1.6c-1.1,5.4-3.3,13.3-8.2,13.3c-2.9,0-4.2-2.9-4.2-5.7v-20.3c0-2.9-2.6-5.4-6.6-5.4c-1.7,0-3.2,0.9-3.2,2.1
		c0,0.9,0.5,1.6,0.5,3.9v18.9c-1.4,3.4-3.6,6.4-6.9,6.4c-4.3,0-7-3.7-7-10.1c0-17.7,10.9-25.7,20.3-25.7c1.2,0,2.5,0.2,3.6,0.2
		c1.2,0,1.6-0.7,1.6-2.8c0-3.2-2.3-5.2-5.7-5.2c-15,0-29.2,12.5-29.2,33.1c0,0.5,0,1,0,1.5c-2.3,5-6.2,8.9-12.9,8.9
		c-6.4,0-9.7-3.4-11.4-7.6c11.9-3.6,18.2-14.4,18.2-23.5c0-7.4-4.2-12.4-11.1-12.4c-9.5,0-18.8,11.7-18.8,27.3
		c0,3.2,0.5,6.1,1.3,8.8c-1.2,2.8-3.4,4.7-7.2,4.7c-0.9,0-1.7,0-2.6-0.2c1.2-4.3,2.2-14.8,2.2-19.6c0-13.8-6.5-20-13-20
		c-4.2,0-11.1,2.4-14.5,7.6V60c0-2.9-2.6-5.4-6.6-5.4c-1.7,0-3.9,0.5-3.9,1.4c0,0.9,1.2,1.1,1.2,4.7v66.2c0,12,5.8,20.8,17.1,21.5
		c10,0.6,13.9-3.8,13.9-3.8c5.5,2.8,12.4,0,16.9-4.2c4.1,5.6,10.4,8.7,17,8.7c8,0,13.4-2.9,17-6.8c2.4,4.2,6.4,6.8,11.8,6.8
		c4.7,0,8.1-2.2,10.6-5c1.8,2.9,5.2,5,9.5,5c4.7,0,8.2-2.2,10.9-5.3c0.1,4.4,3.5,5.3,5.9,5.3c3.6,0,3.4-2.9,3.4-5.3v-17.9
		c0.9-9.7,8.5-20.3,12-20.3c2.3,0,2.6,3.2,2.6,7v24.9c0,6.3,3.8,11.6,10.3,11.6c10.6,0,15.5-11.1,17.6-19.2c0.1-0.5,0.1-0.7,0.1-0.9
		C480.5,126.6,478.2,123.9,476.2,123.9z M329.5,136.2c-3,3.7-6.1,5-10.1,4.2c-4-0.8-6.8-7.3-7.2-10.6c-0.3-2.3-0.2-5.6,1-9.8v-0.3
		c0,0,0,0.1,0,0.1c0.5-1.7,1.1-3.6,1.9-5.6c1.3-3.2,3.8-5.5,6.1-7c3.8-2.6,9.1-0.8,10.6,3.5c1.2,3.5,1.2,7.2,1.2,8.9
		C332.9,122.4,332.5,132.4,329.5,136.2z M357,124.3c-0.2-5.2,1.6-18.7,7.6-18.7c1.6,0,2.6,1.6,2.6,4.3c0,7.4-3.9,13.8-10.1,16.6
		C357.1,125.7,357,125,357,124.3z"/>
</g>
<path class="st1" d="M229.8,67.2c2.6-3.6,4.1-8,4.1-12.8c0-9.9-6.5-18.2-15.5-21c-0.4-0.1-0.6-0.4-0.8-0.8
	c-4.2-13.4-16.3-23-30.7-23c-12.2,0-22.9,7-28.3,17.4c-0.2,0.5-0.7,0.7-1.2,0.6c-7.1-1.4-15.7-0.1-21.8,5.8
	c-10.2,9.9-13.1,29.7,6.5,41.2c1.7,1,3.3,1.5,5.7,1.5l63.6,0.1c0.2,0,0.4,0,0.5,0c0.2,0,0.3,0,0.5,0l1.4,0c7.5,0.7,11,3.6,13.2,6.5
	c1.7,2.3,5.4,1,5.2-1.9c-0.3-4.5-1.8-9.8-2.8-12.8C229.5,67.9,229.6,67.5,229.8,67.2z M157,60.5c-1.1,1-2.4,1.6-3.9,1.7
	c-1.9,0.1-3.8-0.7-5.1-2.1c-1-1.1-1.5-2.3-1.5-3.8c0-1.4,0.5-2.7,1.5-3.8c1.3-1.4,3.2-2.2,5.1-2.1c1.5,0.1,2.7,0.7,3.8,1.7
	c1.2,1.2,1.8,2.5,1.8,4.1C158.8,58,158.2,59.3,157,60.5z M185,60.5c-1.1,1-2.4,1.6-3.9,1.7c-1.9,0.1-3.8-0.7-5.1-2.1
	c-1-1.1-1.5-2.3-1.5-3.8c0-1.4,0.5-2.7,1.5-3.8c1.3-1.4,3.2-2.2,5.1-2.1c1.5,0.1,2.7,0.7,3.8,1.7c1.2,1.2,1.8,2.5,1.8,4.1
	C186.9,58,186.2,59.3,185,60.5z M213.1,60.5c-1.1,1-2.4,1.6-3.9,1.7c-1.9,0.1-3.8-0.7-5.1-2.1c-1-1.1-1.5-2.3-1.5-3.8
	c0-1.4,0.5-2.7,1.5-3.8c1.3-1.4,3.2-2.2,5.1-2.1c1.5,0.1,2.7,0.7,3.8,1.7c1.2,1.2,1.8,2.5,1.8,4.1C214.9,58,214.3,59.3,213.1,60.5z"
	/>
</svg>
