<?xml version="1.0" encoding="utf-8"?>
<!-- Generator: Adobe Illustrator 21.0.2, SVG Export Plug-In . SVG Version: 6.00 Build 0)  -->
<svg version="1.1" id="Layer_1" xmlns="http://www.w3.org/2000/svg" xmlns:xlink="http://www.w3.org/1999/xlink" x="0px" y="0px"
	 viewBox="0 0 30 30" style="enable-background:new 0 0 30 30;" xml:space="preserve">
<style type="text/css">
	.st0{fill:#FFFFFF;}
</style>
<path class="st0" d="M28.1,20.4c0.7-1,1.1-2.1,1.1-3.4c0-2.6-1.7-4.9-4.1-5.6c-0.1,0-0.2-0.1-0.2-0.2c-1.1-3.6-4.4-6.1-8.2-6.1
	c-3.3,0-6.1,1.9-7.6,4.6C9,9.8,8.9,9.9,8.8,9.9c-1.9-0.4-4.2,0-5.8,1.6c-2.7,2.6-3.5,7.9,1.7,11c0.5,0.3,0.9,0.4,1.5,0.4l17,0
	c0,0,0.1,0,0.1,0c0,0,0.1,0,0.1,0l0.4,0c2,0.2,2.9,1,3.5,1.7c0.5,0.6,1.4,0.3,1.4-0.5c-0.1-1.2-0.5-2.6-0.7-3.4
	C28,20.6,28,20.5,28.1,20.4z M8.7,18.6c-0.3,0.3-0.6,0.4-1,0.5c-0.5,0-1-0.2-1.4-0.6c-0.3-0.3-0.4-0.6-0.4-1c0-0.4,0.1-0.7,0.4-1
	c0.3-0.4,0.9-0.6,1.4-0.6c0.4,0,0.7,0.2,1,0.5c0.3,0.3,0.5,0.7,0.5,1.1C9.1,18,9,18.3,8.7,18.6z M16.2,18.6c-0.3,0.3-0.6,0.4-1,0.5
	c-0.5,0-1-0.2-1.4-0.6c-0.3-0.3-0.4-0.6-0.4-1c0-0.4,0.1-0.7,0.4-1c0.3-0.4,0.9-0.6,1.4-0.6c0.4,0,0.7,0.2,1,0.5
	c0.3,0.3,0.5,0.7,0.5,1.1C16.6,18,16.5,18.3,16.2,18.6z M23.6,18.6c-0.3,0.3-0.6,0.4-1,0.5c-0.5,0-1-0.2-1.4-0.6
	c-0.3-0.3-0.4-0.6-0.4-1c0-0.4,0.1-0.7,0.4-1c0.3-0.4,0.9-0.6,1.4-0.6c0.4,0,0.7,0.2,1,0.5c0.3,0.3,0.5,0.7,0.5,1.1
	C24.1,18,24,18.3,23.6,18.6z"/>
</svg>
